# xmcd
#
# Track frame offsets:
#	150
#	11639
#	25399
#	40127
#	52678
#	66340
#	80227
#	96430
#	113188
#	126374
#	147935
#	161485
#	176391
#	192408
#	205909
#	223942
#	236133
#	249442
#	267361
#
# Disc length: 3751 seconds
#
# Revision: 1
# Processed by: cddbd v1.5.2PL0 Copyright (c) Steve Scherf et al.
# Submitted via: audiograbber 1.83.01
#
DISCID=1c0ea513
DTITLE=Various Artist - Promo Only Country Radio April 2017
DYEAR=2017
DGENRE=Country
TTITLE0=Kip Moore - More Girls Like You
TTITLE1=Trace Adkiins - Watered Down
TTITLE2=Mike Lowry - Won't Let You
TTITLE3=Matt Gary - Back
TTITLE4=Keith Uran ft. Carrie Underwood - The Fighter
TTITLE5=Presley and Taylor - This Phone
TTITLE6=Easton Corbin - A Girl Like You
TTITLE7=Zac Brown Band - My Old Man
TTITLE8=Jeremy Bowman ft. Johnny Garcia - American Party
TTITLE9=Reba McEntire - Back To God
TTITLE10=Olivia Dvorak - Don't Come Knockin'
TTITLE11=Christina Taylor - Don't Look Good In Your T-Shirt Anymore
TTITLE12=Blake Shelton - Every Time I Hear That Song
TTITLE13=Lady Antebellum - You Look Good
TTITLE14=Frankie Ballard - You'll Accomp'ny Me
TTITLE15=Sam Hunt - Body Like A Back Road
TTITLE16=Carly Pearce - Every Little Thing
TTITLE17=Chuck Wicks - Whole Damn Thing
TTITLE18=Rachel Holder - You Only Call Me When You're Drunk
EXTD=
EXTT0=
EXTT1=
EXTT2=
EXTT3=
EXTT4=
EXTT5=
EXTT6=
EXTT7=
EXTT8=
EXTT9=
EXTT10=
EXTT11=
EXTT12=
EXTT13=
EXTT14=
EXTT15=
EXTT16=
EXTT17=
EXTT18=
PLAYORDER=
